# xmcd
#
# Track frame offsets:
#	150
#	19933
#	37605
#	55459
#	76120
#
# Disc length: 1240 seconds
#
# Revision: 1
# Processed by: cddbd v1.5.1PL2 Copyright (c) Steve Scherf et al.
# Submitted via: EasyCDDAExtractor 6.2.0.3
#
DISCID=2e04d605
DTITLE=Jen Murdza - Things untold
DYEAR=2006
DGENRE=Acoustic
TTITLE0=Lamb
TTITLE1=Here
TTITLE2=Flicker
TTITLE3=Gale Storm
TTITLE4=This is real
EXTD=
EXTT0=
EXTT1=
EXTT2=
EXTT3=
EXTT4=
PLAYORDER=
